<svg id="ic_pdf" xmlns="http://www.w3.org/2000/svg" width="10.772" height="11.165" viewBox="0 0 10.772 11.165">
  <g id="Layer_1" data-name="Layer 1" transform="translate(0)">
    <path id="Path_36061" data-name="Path 36061" d="M2.05,0h4.71a.239.239,0,0,0,.05.02,1.626,1.626,0,0,1,.952.507l1.35,1.425a1.528,1.528,0,0,1,.388.708c.038.161.047.328.07.5h.207a.975.975,0,0,1,1,.99q0,1.952,0,3.9a.975.975,0,0,1-.993.993H9.55v1.128a.974.974,0,0,1-.988.986q-3.177,0-6.355,0a.974.974,0,0,1-.983-.981c0-.338,0-.676,0-1.014V9.048H.979A.976.976,0,0,1,0,8.072Q0,6.1,0,4.136a.975.975,0,0,1,.978-.975H1.22V.969A.955.955,0,0,1,1.493.3,1.149,1.149,0,0,1,2.05,0ZM5.386,8.395H9.712c.281,0,.405-.124.405-.4V4.22c0-.281-.124-.4-.4-.4H1.059c-.282,0-.405.123-.405.4V7.99c0,.281.124.4.4.4ZM8.895,3.158a1.013,1.013,0,0,0-.278-.772q-.664-.7-1.326-1.4A1.032,1.032,0,0,0,6.5.653H2.262a.343.343,0,0,0-.387.389V3.048c0,.035,0,.07,0,.109Zm0,5.9H1.874V10.1c0,.3.119.415.416.415H8.479c.033,0,.066,0,.1,0a.326.326,0,0,0,.316-.315c.007-.379,0-.755,0-1.14Z" transform="translate(0)"/>
    <path id="Path_36062" data-name="Path 36062" d="M149.73,157.97V156.8a.324.324,0,0,1,.352-.352c.22,0,.443,0,.665,0a1.161,1.161,0,0,1,1.114.7,1.842,1.842,0,0,1,0,1.64,1.2,1.2,0,0,1-1.114.724c-.214.006-.428.007-.643.006a.338.338,0,0,1-.37-.374V157.97Zm.662.883c.112,0,.216,0,.32,0a.559.559,0,0,0,.561-.354,1.251,1.251,0,0,0,0-1.054.49.49,0,0,0-.365-.315,4.8,4.8,0,0,0-.518-.036Z" transform="translate(-145.369 -151.894)"/>
    <path id="Path_36063" data-name="Path 36063" d="M54.591,158.507v.743a.325.325,0,0,1-.153.295.329.329,0,0,1-.5-.274c0-.109,0-.218,0-.327V156.82a.325.325,0,0,1,.362-.363,6.308,6.308,0,0,1,.879.029A1.013,1.013,0,0,1,56,157.519a1.031,1.031,0,0,1-.952.988C54.9,158.515,54.755,158.507,54.591,158.507Zm0-.654c.133,0,.259,0,.385,0a.374.374,0,0,0,.352-.315.352.352,0,0,0-.258-.4,3.411,3.411,0,0,0-.479-.035Z" transform="translate(-52.362 -151.899)"/>
    <path id="Path_36064" data-name="Path 36064" d="M258.2,156.249v.542h.443a1.071,1.071,0,0,1,.216.013.325.325,0,0,1-.049.642c-.163.008-.327,0-.491,0H258.2v.928a.326.326,0,0,1-.641.091.42.42,0,0,1-.013-.118v-2.42a.321.321,0,0,1,.345-.347q.48,0,.959,0a.323.323,0,0,1,.35.322.334.334,0,0,1-.354.332h-.61Z" transform="translate(-250.041 -151.053)"/>
  </g>
</svg>
